<svg xmlns="http://www.w3.org/2000/svg" width="1200" height="630" viewBox="0 0 1200 630">
  <rect width="1200" height="630" fill="#0c1014"/>
  <defs>
    <pattern id="grid" width="48" height="48" patternUnits="userSpaceOnUse">
      <path d="M 48 0 L 0 0 0 48" fill="none" stroke="rgba(255,255,255,0.04)" stroke-width="1"/>
    </pattern>
  </defs>
  <rect width="1200" height="630" fill="url(#grid)"/>

  <!-- headline -->
  <text x="80" y="120" fill="#f3f5f7" font-family="Inter, system-ui, sans-serif" font-size="64" font-weight="600" letter-spacing="-2">AgencyDesk AI</text>
  <text x="80" y="175" fill="#8a93a1" font-family="Inter, system-ui, sans-serif" font-size="28" font-weight="500">AI back office for insurance agencies</text>

  <!-- left panel -->
  <rect x="80" y="230" width="300" height="320" rx="8" fill="rgba(255,255,255,0.04)" stroke="rgba(255,255,255,0.1)"/>
  <text x="100" y="268" fill="#8a93a1" font-family="Inter, sans-serif" font-size="11" font-weight="600" letter-spacing="2">INBOUND PACKET</text>
  <rect x="100" y="290" width="260" height="56" rx="8" fill="#f5f6f4"/>
  <text x="120" y="325" fill="#0c1014" font-family="Inter, sans-serif" font-size="18" font-weight="600">ACORD 125</text>
  <rect x="100" y="358" width="260" height="56" rx="8" fill="#f5f6f4"/>
  <text x="120" y="393" fill="#0c1014" font-family="Inter, sans-serif" font-size="18" font-weight="600">Loss Runs</text>
  <rect x="100" y="426" width="260" height="56" rx="8" fill="#f5f6f4"/>
  <text x="120" y="461" fill="#0c1014" font-family="Inter, sans-serif" font-size="18" font-weight="600">Policy Dec</text>

  <!-- processor -->
  <circle cx="600" cy="390" r="72" fill="#11161d" stroke="rgba(255,255,255,0.12)"/>
  <polygon points="600,350 626,365 626,415 600,430 574,415 574,365" fill="none" stroke="#2dd4bf" stroke-width="2.5"/>
  <circle cx="600" cy="390" r="8" fill="#2dd4bf"/>
  <text x="600" y="490" text-anchor="middle" fill="#8a93a1" font-family="Inter, sans-serif" font-size="12" font-weight="600" letter-spacing="2">AGENCYDESK AI</text>

  <!-- right panel -->
  <rect x="820" y="230" width="300" height="320" rx="8" fill="rgba(255,255,255,0.04)" stroke="rgba(255,255,255,0.1)"/>
  <text x="840" y="268" fill="#8a93a1" font-family="Inter, sans-serif" font-size="11" font-weight="600" letter-spacing="2">REVIEW QUEUE</text>
  <rect x="840" y="290" width="260" height="64" rx="8" fill="rgba(255,255,255,0.05)" stroke="rgba(255,255,255,0.1)"/>
  <text x="860" y="318" fill="#8a93a1" font-family="Inter, sans-serif" font-size="11" font-weight="600" letter-spacing="1.5">NAMED INSURED</text>
  <text x="860" y="342" fill="#f3f5f7" font-family="Inter, sans-serif" font-size="16" font-weight="500">Pinecrest Logistics LLC</text>
  <rect x="840" y="368" width="260" height="64" rx="8" fill="rgba(245,177,77,0.1)" stroke="rgba(245,177,77,0.45)"/>
  <text x="860" y="396" fill="#f5b14d" font-family="Inter, sans-serif" font-size="11" font-weight="600" letter-spacing="1.5">MISSING</text>
  <text x="860" y="420" fill="#f3f5f7" font-family="Inter, sans-serif" font-size="16" font-weight="500">Signed COI request</text>

  <!-- CTA pill -->
  <rect x="80" y="580" width="220" height="36" rx="6" fill="#2dd4bf"/>
  <text x="190" y="604" text-anchor="middle" fill="#0c1014" font-family="Inter, sans-serif" font-size="15" font-weight="600">Join private beta</text>
</svg>
